<svg width="24" height="24" viewBox="0 0 24 24" fill="none" xmlns="http://www.w3.org/2000/svg">
<g clip-path="url(#clip0_205_2279)">
<path fill-rule="evenodd" clip-rule="evenodd" d="M23.4284 11.9999C23.4284 18.3117 18.3117 23.4284 11.9999 23.4284C5.68803 23.4284 0.571289 18.3117 0.571289 11.9999C0.571289 5.68803 5.68803 0.571289 11.9999 0.571289C18.3117 0.571289 23.4284 5.68803 23.4284 11.9999ZM16.8758 7.47956L5.72696 11.6745C4.96283 11.9661 4.97632 12.3789 5.59591 12.5707L8.45009 13.4396L15.071 9.37159C15.3783 9.17223 15.6636 9.28507 15.4304 9.48537L10.0728 14.2088L9.86754 17.0798C10.1663 17.0798 10.2963 16.9528 10.4505 16.8024L11.8448 15.4915L14.7356 17.5707C15.2627 17.8622 15.6395 17.7117 15.7802 17.093L17.6784 8.36539L17.6775 8.36633C17.8452 7.60275 17.3932 7.29713 16.8758 7.47956Z" fill="#841308"/>
</g>
<defs>
<clipPath id="clip0_205_2279">
<rect width="24" height="24" fill="white"/>
</clipPath>
</defs>
</svg>
