<svg width="24" height="24" viewBox="0 0 24 24" fill="none" xmlns="http://www.w3.org/2000/svg">
<g clip-path="url(#clip0_205_2283)">
<path fill-rule="evenodd" clip-rule="evenodd" d="M2.17802 2.17802C0.571289 3.78475 0.571289 6.37072 0.571289 11.5427V12.457C0.571289 17.629 0.571289 20.215 2.17802 21.8217C3.78475 23.4284 6.37072 23.4284 11.5427 23.4284H12.457C17.629 23.4284 20.215 23.4284 21.8217 21.8217C23.4284 20.215 23.4284 17.629 23.4284 12.457V11.5427C23.4284 6.37072 23.4284 3.78475 21.8217 2.17802C20.215 0.571289 17.629 0.571289 12.457 0.571289H11.5427C6.37072 0.571289 3.78475 0.571289 2.17802 2.17802ZM4.57031 7.42822C4.69095 13.496 7.58624 17.1425 12.6624 17.1425H12.9501V13.671C14.8154 13.8655 16.2258 15.2949 16.7919 17.1425H19.4275C18.7036 14.3809 16.8011 12.8542 15.6133 12.2708C16.8011 11.5512 18.4715 9.80088 18.8706 7.42822H16.4763C15.9566 9.35358 14.4163 11.1039 12.9501 11.2692V7.42822H10.5558V14.1572C9.07103 13.7683 7.19653 11.8818 7.11301 7.42822H4.57031Z" fill="#841308"/>
</g>
<defs>
<clipPath id="clip0_205_2283">
<rect width="24" height="24" fill="white"/>
</clipPath>
</defs>
</svg>
