<svg width="16" height="17" viewBox="0 0 16 17" fill="none" xmlns="http://www.w3.org/2000/svg">
<path d="M12.1522 5.27282C12.1522 2.97684 10.2901 1.11475 7.99409 1.11475C5.69811 1.11475 3.83602 2.97684 3.83602 5.27282C3.83602 7.56879 5.69811 9.43089 7.99409 9.43089C10.2901 9.43089 12.1522 7.56879 12.1522 5.27282ZM4.92073 5.27282C4.92073 3.57343 6.2947 2.19946 7.99409 2.19946C9.69347 2.19946 11.0674 3.57343 11.0674 5.27282C11.0674 6.9722 9.69347 8.34617 7.99409 8.34617C6.2947 8.34617 4.92073 6.9722 4.92073 5.27282Z" fill="#841308"/>
<path d="M1.0339 15.7945C1.12429 15.8488 1.21469 15.8669 1.30508 15.8669C1.48586 15.8669 1.68473 15.7765 1.77512 15.5957C3.04062 13.3539 5.42699 11.9619 7.99415 11.9619C10.5613 11.9619 12.9477 13.3539 14.2313 15.5957C14.3759 15.8488 14.7194 15.9392 14.9725 15.7945C15.2256 15.6499 15.316 15.3064 15.1713 15.0533C13.707 12.4862 10.959 10.8772 7.99415 10.8772C5.02926 10.8772 2.28132 12.4862 0.816957 15.0533C0.672329 15.3064 0.762722 15.6499 1.0339 15.7945Z" fill="#841308"/>
</svg>
