<svg width="16" height="17" viewBox="0 0 16 17" fill="none" xmlns="http://www.w3.org/2000/svg">
<path d="M8 0.5C3.58857 0.5 0 4.08857 0 8.5C0 12.9114 3.58857 16.5 8 16.5C12.4114 16.5 16 12.9114 16 8.5C16 4.08857 12.4114 0.5 8 0.5ZM8.01143 13.0714C7.69714 13.0714 7.43429 12.8143 7.43429 12.5C7.43429 12.1857 7.69143 11.9286 8.00571 11.9286H8.01143C8.32572 11.9286 8.58286 12.1857 8.58286 12.5C8.58286 12.8143 8.32572 13.0714 8.01143 13.0714ZM9.42857 8.66572C8.89143 9.02 8.57143 9.64857 8.57143 10.3457C8.57143 10.66 8.31429 10.9171 8 10.9171C7.68571 10.9171 7.42857 10.66 7.42857 10.3457C7.42857 9.26571 7.93714 8.28286 8.79429 7.71714C9.30286 7.38 9.54286 6.76857 9.4 6.16857C9.28572 5.65429 8.85714 5.23143 8.34857 5.11143C7.89714 5.00857 7.45714 5.10571 7.10286 5.38571C6.76 5.66 6.56 6.07143 6.56 6.51143C6.56 6.82572 6.30286 7.08286 5.98857 7.08286C5.66857 7.08286 5.41714 6.82572 5.41714 6.51143C5.41714 5.72286 5.77143 4.98571 6.39429 4.48857C7.01143 3.99714 7.81714 3.82 8.60571 3.99714C9.07048 4.10698 9.49536 4.34436 9.83255 4.68255C10.1697 5.02075 10.4058 5.44634 10.5143 5.91143C10.76 6.98 10.3314 8.06572 9.42857 8.66572Z" fill="currentColor"/>
</svg>
