<svg width="28" height="22" viewBox="0 0 28 22" fill="none" xmlns="http://www.w3.org/2000/svg">
<path d="M26.5841 4.23757C26.2816 3.03268 25.395 2.08288 24.2706 1.75844C22.2164 1.15625 13.9997 1.15625 13.9997 1.15625C13.9997 1.15625 5.78326 1.15625 3.72911 1.73561C2.62634 2.0597 1.71806 3.03285 1.41557 4.23757C0.875 6.43827 0.875 11.0022 0.875 11.0022C0.875 11.0022 0.875 15.5892 1.41557 17.7669C1.71838 18.9716 2.60471 19.9214 3.72927 20.2459C5.80489 20.8482 14 20.8482 14 20.8482C14 20.8482 22.2164 20.8482 24.2706 20.2689C25.3951 19.9446 26.2816 18.9948 26.5844 17.7901C27.1248 15.5892 27.1248 11.0254 27.1248 11.0254C27.1248 11.0254 27.1465 6.43827 26.5841 4.23757ZM11.3837 15.2186V6.78588L18.2163 11.0022L11.3837 15.2186Z" fill="#841308"/>
</svg>
