<svg width="16" height="17" viewBox="0 0 16 17" fill="none" xmlns="http://www.w3.org/2000/svg">
<path d="M13.9999 8.9999C13.9342 9 13.8692 8.9871 13.8085 8.96196C13.7479 8.93682 13.6928 8.89993 13.6464 8.8534L10.2874 5.49465C10.2397 5.44853 10.2016 5.39336 10.1754 5.33236C10.1492 5.27135 10.1354 5.20574 10.1348 5.13935C10.1342 5.07296 10.1469 5.00713 10.172 4.94568C10.1971 4.88423 10.2343 4.8284 10.2812 4.78146C10.3282 4.73451 10.384 4.69738 10.4454 4.67224C10.5069 4.6471 10.5727 4.63445 10.6391 4.63503C10.7055 4.63561 10.7711 4.6494 10.8321 4.6756C10.8931 4.70181 10.9483 4.7399 10.9944 4.78765L14.3534 8.1464C14.4233 8.21633 14.4709 8.30541 14.4902 8.40239C14.5095 8.49936 14.4996 8.59988 14.4617 8.69123C14.4239 8.78258 14.3598 8.86066 14.2776 8.91561C14.1954 8.97055 14.0988 8.99988 13.9999 8.9999Z" fill="#841308"/>
<path d="M10.641 12.3588C10.5421 12.3588 10.4455 12.3294 10.3633 12.2745C10.2811 12.2196 10.217 12.1415 10.1792 12.0501C10.1413 11.9588 10.1314 11.8583 10.1507 11.7613C10.17 11.6643 10.2176 11.5752 10.2875 11.5053L13.6465 8.14654C13.6926 8.09879 13.7478 8.06069 13.8088 8.03449C13.8698 8.00829 13.9354 7.99449 14.0018 7.99392C14.0682 7.99334 14.134 8.00599 14.1955 8.03113C14.2569 8.05627 14.3128 8.0934 14.3597 8.14034C14.4067 8.18729 14.4438 8.24312 14.4689 8.30456C14.4941 8.36601 14.5067 8.43185 14.5061 8.49824C14.5056 8.56463 14.4918 8.63024 14.4656 8.69124C14.4394 8.75225 14.4013 8.80742 14.3535 8.85354L10.9948 12.2123C10.897 12.3098 10.769 12.3588 10.641 12.3588Z" fill="#841308"/>
<path d="M14 9H4.5C4.36739 9 4.24021 8.94732 4.14645 8.85355C4.05268 8.75979 4 8.63261 4 8.5C4 8.36739 4.05268 8.24021 4.14645 8.14645C4.24021 8.05268 4.36739 8 4.5 8H14C14.1326 8 14.2598 8.05268 14.3536 8.14645C14.4473 8.24021 14.5 8.36739 14.5 8.5C14.5 8.63261 14.4473 8.75979 14.3536 8.85355C14.2598 8.94732 14.1326 9 14 9ZM2.5 15C1.9485 15 1.5 14.5515 1.5 14C1.5 13.8674 1.55268 13.7402 1.64645 13.6464C1.74021 13.5527 1.86739 13.5 2 13.5C2.13261 13.5 2.25979 13.5527 2.35355 13.6464C2.44732 13.7402 2.5 13.8674 2.5 14V14.0007C2.56724 13.9981 2.63431 14.0091 2.69721 14.0331C2.7601 14.057 2.81751 14.0934 2.866 14.14C2.9145 14.1867 2.95307 14.2427 2.97943 14.3046C3.00578 14.3665 3.01936 14.4331 3.01936 14.5004C3.01936 14.5677 3.00578 14.6343 2.97943 14.6962C2.95307 14.7581 2.9145 14.8141 2.866 14.8607C2.81751 14.9074 2.7601 14.9437 2.69721 14.9677C2.63431 14.9916 2.56724 15.0026 2.5 15Z" fill="#841308"/>
<path d="M6 15H2.5C2.36739 15 2.24021 14.9473 2.14645 14.8536C2.05268 14.7598 2 14.6326 2 14.5C2 14.3674 2.05268 14.2402 2.14645 14.1464C2.24021 14.0527 2.36739 14 2.5 14H6C6.13261 14 6.25979 14.0527 6.35355 14.1464C6.44732 14.2402 6.5 14.3674 6.5 14.5C6.5 14.6326 6.44732 14.7598 6.35355 14.8536C6.25979 14.9473 6.13261 15 6 15Z" fill="#841308"/>
<path d="M2 14.5C1.86739 14.5 1.74021 14.4473 1.64645 14.3536C1.55268 14.2598 1.5 14.1326 1.5 14V3C1.5 2.86739 1.55268 2.74021 1.64645 2.64645C1.74021 2.55268 1.86739 2.5 2 2.5C2.13261 2.5 2.25979 2.55268 2.35355 2.64645C2.44732 2.74021 2.5 2.86739 2.5 3V14C2.5 14.1326 2.44732 14.2598 2.35355 14.3536C2.25979 14.4473 2.13261 14.5 2 14.5Z" fill="#841308"/>
<path d="M1.99975 3.5C1.86719 3.49993 1.74007 3.44723 1.64636 3.35347C1.55264 3.2597 1.5 3.13256 1.5 3C1.5 2.4485 1.9485 2 2.5 2C2.63261 2 2.75979 2.05268 2.85355 2.14645C2.94732 2.24021 3 2.36739 3 2.5C3 2.63261 2.94732 2.75979 2.85355 2.85355C2.75979 2.94732 2.63261 3 2.5 3H2.49925C2.49925 3.276 2.276 3.5 1.99975 3.5Z" fill="#841308"/>
<path d="M6 3H2.5C2.36739 3 2.24021 2.94732 2.14645 2.85355C2.05268 2.75979 2 2.63261 2 2.5C2 2.36739 2.05268 2.24021 2.14645 2.14645C2.24021 2.05268 2.36739 2 2.5 2H6C6.13261 2 6.25979 2.05268 6.35355 2.14645C6.44732 2.24021 6.5 2.36739 6.5 2.5C6.5 2.63261 6.44732 2.75979 6.35355 2.85355C6.25979 2.94732 6.13261 3 6 3Z" fill="#841308"/>
</svg>
